<svg width="32" height="32" viewBox="0 0 32 32" fill="none" xmlns="http://www.w3.org/2000/svg">
<path d="M19.3333 22.6667C19.3333 24.8667 17.5333 26.6667 15.3333 26.6667C13.1333 26.6667 11.3333 24.8667 11.3333 22.6667H14C14 23.4 14.6 24 15.3333 24C16.0667 24 16.6667 23.4 16.6667 22.6667C16.6667 21.9333 16.0667 21.3333 15.3333 21.3333H3.99999C3.26361 21.3333 2.66666 20.7364 2.66666 20C2.66666 19.2636 3.26361 18.6667 3.99999 18.6667H15.3333C17.5333 18.6667 19.3333 20.4667 19.3333 22.6667ZM25.3333 8.66667C25.3333 6.09333 23.24 4 20.6667 4C18.0933 4 16 6.09333 16 8.66667H18.6667C18.6667 7.56 19.56 6.66667 20.6667 6.66667C21.7733 6.66667 22.6667 7.56 22.6667 8.66667C22.6667 9.77333 21.7733 10.6667 20.6667 10.6667H3.99999C3.26361 10.6667 2.66666 11.2636 2.66666 12C2.66666 12.7364 3.26361 13.3333 3.99999 13.3333H20.6667C23.24 13.3333 25.3333 11.24 25.3333 8.66667ZM24.6667 14.6667H3.99999C3.26361 14.6667 2.66666 15.2636 2.66666 16C2.66666 16.7364 3.26361 17.3333 3.99999 17.3333H24.6667C25.7733 17.3333 26.6667 18.2267 26.6667 19.3333C26.6667 20.44 25.7733 21.3333 24.6667 21.3333V24C27.24 24 29.3333 21.9067 29.3333 19.3333C29.3333 16.76 27.24 14.6667 24.6667 14.6667Z" fill="black"/>
</svg>
