<svg width="32" height="32" viewBox="0 0 32 32" fill="none" xmlns="http://www.w3.org/2000/svg">
<path d="M23.0606 19.1674C22.8002 20.6158 22.1005 21.95 21.0556 22.9903C20.0108 24.0307 18.6709 24.7272 17.2165 24.9862C17.1613 24.995 17.1055 24.9996 17.0496 25C16.7977 24.9999 16.5551 24.9056 16.3697 24.7357C16.1844 24.5658 16.07 24.3327 16.0492 24.0828C16.0283 23.8328 16.1026 23.5841 16.2572 23.3861C16.4118 23.1881 16.6355 23.0552 16.8839 23.0137C18.9637 22.665 20.7285 20.9074 21.0812 18.8324C21.1258 18.5709 21.2729 18.3376 21.4902 18.1841C21.7074 18.0305 21.977 17.9692 22.2397 18.0137C22.5023 18.0581 22.7365 18.2046 22.8907 18.421C23.0449 18.6374 23.1064 18.9059 23.0618 19.1674H23.0606ZM27.0909 17.9999C27.0909 20.9173 25.9272 23.7152 23.8558 25.7782C21.7843 27.8411 18.9749 29 16.0455 29C13.116 29 10.3066 27.8411 8.23514 25.7782C6.16371 23.7152 5 20.9173 5 17.9999C5 14.5099 6.38068 10.9411 9.09937 7.39359C9.18543 7.28126 9.29441 7.18836 9.41913 7.12103C9.54386 7.05369 9.6815 7.01344 9.82298 7.00293C9.96446 6.99242 10.1066 7.01189 10.2399 7.06005C10.3733 7.10821 10.4949 7.18397 10.5968 7.28234L13.6242 10.2086L16.3856 2.6573C16.4408 2.50669 16.5315 2.3715 16.6501 2.26312C16.7687 2.15474 16.9118 2.07636 17.0672 2.03457C17.2226 1.99278 17.3858 1.98882 17.5431 2.02301C17.7004 2.05721 17.8471 2.12856 17.9709 2.23105C20.7159 4.49982 27.0909 10.5686 27.0909 17.9999ZM25.0826 17.9999C25.0826 12.2386 20.5904 7.25984 17.7763 4.70857L14.9811 12.3424C14.9237 12.4992 14.8278 12.6392 14.7022 12.7496C14.5766 12.8601 14.4253 12.9375 14.2619 12.9747C14.0986 13.012 13.9285 13.008 13.7671 12.963C13.6058 12.9181 13.4583 12.8336 13.3381 12.7174L10.0282 9.51985C8.02369 12.4011 7.00826 15.2499 7.00826 17.9999C7.00826 20.3869 7.96039 22.6761 9.6552 24.3639C11.35 26.0518 13.6486 27 16.0455 27C18.4423 27 20.7409 26.0518 22.4357 24.3639C24.1305 22.6761 25.0826 20.3869 25.0826 17.9999Z" fill="black"/>
</svg>
