<svg width="30" height="30" viewBox="0 0 30 30" fill="none" xmlns="http://www.w3.org/2000/svg">
<path d="M23.4375 18.75C23.4375 23.9279 20.1779 27.1875 15 27.1875C9.82207 27.1875 6.5625 23.9279 6.5625 18.75C6.5625 13.1936 12.6111 5.69239 14.4662 3.52266C14.5322 3.44557 14.6141 3.38369 14.7063 3.34126C14.7985 3.29883 14.8988 3.27686 15.0003 3.27686C15.1018 3.27686 15.2021 3.29883 15.2943 3.34126C15.3865 3.38369 15.4684 3.44557 15.5344 3.52266C17.3889 5.69239 23.4375 13.1936 23.4375 18.75Z" stroke="#038284" stroke-width="2.5" stroke-miterlimit="10"/>
<path d="M23.4375 18.75C23.4375 23.9279 20.1779 27.1875 15 27.1875C9.82207 27.1875 6.5625 23.9279 6.5625 18.75C6.5625 13.1936 12.6111 5.69239 14.4662 3.52266C14.5322 3.44557 14.6141 3.38369 14.7063 3.34126C14.7985 3.29883 14.8988 3.27686 15.0003 3.27686C15.1018 3.27686 15.2021 3.29883 15.2943 3.34126C15.3865 3.38369 15.4684 3.44557 15.5344 3.52266C17.3889 5.69239 23.4375 13.1936 23.4375 18.75Z" stroke="black" stroke-opacity="0.2" stroke-width="2.5" stroke-miterlimit="10"/>
<path d="M20.1562 19.2188C20.1562 20.3376 19.7118 21.4107 18.9206 22.2019C18.1294 22.993 17.0564 23.4375 15.9375 23.4375" stroke="#038284" stroke-width="2.5" stroke-linecap="round" stroke-linejoin="round"/>
<path d="M20.1562 19.2188C20.1562 20.3376 19.7118 21.4107 18.9206 22.2019C18.1294 22.993 17.0564 23.4375 15.9375 23.4375" stroke="black" stroke-opacity="0.2" stroke-width="2.5" stroke-linecap="round" stroke-linejoin="round"/>
</svg>
