<svg width="30" height="30" viewBox="0 0 30 30" fill="none" xmlns="http://www.w3.org/2000/svg">
<path d="M15 16.875C11.4644 16.875 8.79063 14.1606 8.79063 10.625L8.75 4.375L11.875 6.875L15 3.125L18.125 6.875L21.25 4.375V10.625C21.25 14.1606 18.5363 16.875 15 16.875ZM14.6788 27.0712C15.655 26.095 14.4681 23.3244 12.0275 20.8838C9.58625 18.4431 6.81625 17.2556 5.84 18.2325C4.86375 19.2088 6.05063 21.9787 8.49188 24.42C10.9325 26.86 13.7019 28.0475 14.6788 27.0712Z" stroke="#038284" stroke-width="2.5" stroke-miterlimit="10" stroke-linecap="round" stroke-linejoin="round"/>
<path d="M15 16.875C11.4644 16.875 8.79063 14.1606 8.79063 10.625L8.75 4.375L11.875 6.875L15 3.125L18.125 6.875L21.25 4.375V10.625C21.25 14.1606 18.5363 16.875 15 16.875ZM14.6788 27.0712C15.655 26.095 14.4681 23.3244 12.0275 20.8838C9.58625 18.4431 6.81625 17.2556 5.84 18.2325C4.86375 19.2088 6.05063 21.9787 8.49188 24.42C10.9325 26.86 13.7019 28.0475 14.6788 27.0712Z" stroke="black" stroke-opacity="0.2" stroke-width="2.5" stroke-miterlimit="10" stroke-linecap="round" stroke-linejoin="round"/>
<path d="M15.5181 26.8562C16.4944 27.833 19.2644 26.6455 21.7056 24.2049C24.1463 21.7643 25.3331 18.9937 24.3569 18.0174C23.3806 17.0412 20.6106 18.2287 18.1694 20.6693C15.7288 23.1099 14.5419 25.8793 15.5181 26.8562Z" stroke="#038284" stroke-width="2.5" stroke-miterlimit="10" stroke-linecap="round" stroke-linejoin="round"/>
<path d="M15.5181 26.8562C16.4944 27.833 19.2644 26.6455 21.7056 24.2049C24.1463 21.7643 25.3331 18.9937 24.3569 18.0174C23.3806 17.0412 20.6106 18.2287 18.1694 20.6693C15.7288 23.1099 14.5419 25.8793 15.5181 26.8562Z" stroke="black" stroke-opacity="0.2" stroke-width="2.5" stroke-miterlimit="10" stroke-linecap="round" stroke-linejoin="round"/>
</svg>
